<!-- Generated by IcoMoon.io -->
<svg version="1.1" xmlns="http://www.w3.org/2000/svg" width="32" height="32" viewBox="0 0 32 32">
<title>shoe</title>
<path fill="#de0000" d="M31.874 23.792c-0.377-1.184-1.486-1.903-2.35-2.298-1.774-0.811-3.72-2.536-5.46-4.506l0.26-0.159c0.223-0.137 0.293-0.43 0.156-0.653s-0.43-0.293-0.653-0.156l-0.389 0.239c-0.227-0.273-0.45-0.548-0.667-0.825l0.386-0.251c0.22-0.143 0.282-0.437 0.139-0.657s-0.437-0.282-0.657-0.139l-0.447 0.29c-0.25-0.337-0.491-0.673-0.721-1.007l0.332-0.206c0.223-0.138 0.291-0.431 0.153-0.654s-0.431-0.291-0.654-0.153l-0.359 0.223c-0.626-0.967-1.144-1.886-1.512-2.681-0.053-0.143-0.506-1.451 0.397-2.354 0.185-0.185 0.185-0.486-0-0.671s-0.486-0.185-0.671 0c-0.973 0.974-0.891 2.214-0.746 2.892-0.568 0.161-1.635 0.428-2.834 0.548-2.845 0.285-4.243-0.456-4.915-1.128-2.44-2.44-2.598-4.872-2.6-4.894-0.009-0.199-0.142-0.371-0.332-0.431s-0.397 0.006-0.519 0.164l-7.112 9.259c-0.081 0.105-0.114 0.239-0.091 0.37s0.099 0.246 0.21 0.318c0.133 0.086 13.334 8.618 17.054 10.877 3.028 1.838 7.143 2.709 10.293 2.709 0.951 0 1.815-0.079 2.534-0.236 0.118-0.026 0.222-0.095 0.291-0.195l1.476-2.147c0.001-0.001 0.002-0.003 0.003-0.005 0.011-0.017 0.022-0.035 0.031-0.053 0.002-0.003 0.003-0.007 0.005-0.010 0.008-0.017 0.015-0.035 0.021-0.054 0.001-0.002 0.002-0.004 0.002-0.005s0.001-0.004 0.002-0.006c0.001-0.002 0.001-0.004 0.002-0.006 0.029-0.1 0.168-0.645-0.057-1.351zM11.357 18.339c3.633 2.323 6.12 3.892 7.391 4.665 3.028 1.838 7.143 2.709 10.293 2.709 0.501 0 0.977-0.023 1.422-0.066l-0.747 1.087c-1.479 0.284-3.514 0.234-5.623-0.141-2.386-0.424-4.634-1.224-6.328-2.253-3.326-2.020-14.28-9.086-16.599-10.583l1.011-1.316c3.385 2.185 6.001 3.864 7.615 4.898 0.079 0.051 0.168 0.075 0.256 0.075 0.156 0 0.31-0.077 0.4-0.219 0.142-0.221 0.077-0.514-0.144-0.656-0.715-0.458-1.627-1.043-2.715-1.742 0.497-0.915 0.758-1.941 0.758-2.993 0-1.46-0.512-2.882-1.442-4.004-0.167-0.202-0.467-0.23-0.669-0.063s-0.23 0.467-0.063 0.669c0.789 0.952 1.223 2.159 1.223 3.398 0 0.87-0.21 1.717-0.61 2.477-1.177-0.757-2.527-1.626-4.030-2.597l4.56-5.937c0.29 1.057 0.99 2.73 2.673 4.413 2.415 2.415 7.306 1.225 8.753 0.802 0.369 0.744 0.846 1.569 1.397 2.419l-1.613 1.002c-0.223 0.138-0.291 0.431-0.153 0.654 0.090 0.145 0.245 0.224 0.404 0.224 0.086 0 0.172-0.023 0.25-0.072l1.64-1.019c0.235 0.341 0.479 0.683 0.731 1.024l-1.282 0.833c-0.22 0.143-0.282 0.437-0.139 0.657 0.091 0.14 0.243 0.216 0.399 0.216 0.089 0 0.178-0.025 0.258-0.077l1.34-0.871c0.213 0.273 0.429 0.543 0.648 0.808l-1.192 0.732c-0.223 0.137-0.293 0.43-0.156 0.653 0.090 0.146 0.245 0.226 0.405 0.226 0.085 0 0.171-0.023 0.248-0.070l1.317-0.809c2.597 2.977 4.623 4.289 5.885 4.866 1.72 0.786 1.929 1.787 1.922 2.253-1.466 0.255-3.439 0.197-5.483-0.167-2.386-0.424-4.634-1.224-6.328-2.253-1.265-0.768-3.745-2.334-7.372-4.653-0.221-0.141-0.514-0.077-0.656 0.144s-0.077 0.515 0.144 0.656z"></path>
</svg>
