<!-- Generated by IcoMoon.io -->
<svg version="1.1" xmlns="http://www.w3.org/2000/svg" width="32" height="32" viewBox="0 0 32 32">
<title>hand-cart</title>
<path fill="#ffffff" d="M3.53 0.481c-0.083 0.089-0.151 0.241-0.151 0.337s0.495 1.368 1.1 2.833c0.605 1.465 1.1 2.675 1.1 2.689 0 0.020-0.804 0.034-1.788 0.034h-1.795l-0.165 0.172c-0.206 0.199-0.22 0.509-0.041 0.729l0.131 0.165 4.154 0.068 3.294 7.942c1.809 4.367 3.294 7.956 3.294 7.977s-0.193 0.179-0.426 0.344c-1.073 0.784-1.774 2.166-1.774 3.507 0 2.4 2.001 4.401 4.401 4.401 2.496 0 4.559-2.173 4.367-4.607-0.020-0.323-0.048-0.674-0.055-0.777l-0.014-0.199 5.123-2.125c3.301-1.362 5.164-2.173 5.247-2.269 0.062-0.083 0.117-0.22 0.117-0.316 0-0.186-0.344-0.571-0.509-0.571-0.062 0-2.434 0.963-5.281 2.139-4.889 2.028-5.171 2.132-5.261 2.015-1.038-1.465-2.4-2.18-3.94-2.056-0.323 0.020-0.674 0.048-0.777 0.055l-0.199 0.014-4.621-11.174c-2.545-6.148-4.69-11.243-4.772-11.332-0.199-0.206-0.557-0.206-0.756 0.007zM15.653 24.081c1.76 0.461 2.854 2.262 2.407 3.975-0.309 1.19-1.224 2.111-2.407 2.42-1.726 0.447-3.528-0.646-3.988-2.407-0.612-2.359 1.63-4.6 3.988-3.988z"></path>
<path fill="#ffffff" d="M14.312 26.33c-0.337 0.234-0.495 0.488-0.53 0.86-0.069 0.798 0.708 1.375 1.465 1.086 0.454-0.172 0.681-0.502 0.681-1.004 0-0.296-0.034-0.447-0.144-0.591-0.241-0.33-0.564-0.502-0.922-0.502-0.22 0-0.392 0.048-0.55 0.151z"></path>
<path fill="#ffffff" d="M13.212 5.92c-1.946 0.812-3.624 1.533-3.727 1.623-0.131 0.096-0.193 0.213-0.193 0.344 0 0.303 2.936 7.358 3.143 7.544 0.089 0.089 0.234 0.158 0.316 0.158 0.254 0 7.427-3.005 7.564-3.17 0.062-0.083 0.117-0.213 0.117-0.296 0-0.206-2.95-7.337-3.115-7.523-0.089-0.096-0.22-0.151-0.351-0.151-0.116 0.007-1.808 0.667-3.754 1.472zM17.957 8.87c0.681 1.65 1.162 2.902 1.128 2.936-0.076 0.069-5.715 2.414-5.907 2.455-0.124 0.020-0.275-0.309-1.368-2.964-0.674-1.644-1.224-3.012-1.224-3.039s1.362-0.612 3.019-1.3c2.923-1.21 3.012-1.245 3.088-1.107 0.041 0.083 0.612 1.437 1.265 3.019z"></path>
<path fill="#ffffff" d="M20.013 13.828c-3.658 1.513-6.712 2.82-6.794 2.888-0.083 0.076-0.144 0.213-0.144 0.316 0 0.248 1.616 4.14 1.767 4.243 0.179 0.138 0.55 0.11 0.708-0.048 0.083-0.083 0.138-0.227 0.138-0.364s-0.275-0.887-0.653-1.795c-0.358-0.86-0.654-1.602-0.654-1.644 0.007-0.11 12.096-5.102 12.165-5.027 0.083 0.096 2.51 6.010 2.476 6.031-0.014 0.014-2.18 0.915-4.807 2.001-4.937 2.036-5.089 2.111-5.089 2.489 0 0.234 0.289 0.509 0.53 0.509 0.103 0 2.483-0.949 5.281-2.104 5.109-2.111 5.398-2.248 5.398-2.565 0-0.227-3.026-7.461-3.177-7.592-0.076-0.062-0.22-0.117-0.323-0.11-0.096 0.007-3.17 1.252-6.822 2.771z"></path>
</svg>
