<!-- Generated by IcoMoon.io -->
<svg version="1.1" xmlns="http://www.w3.org/2000/svg" width="32" height="32" viewBox="0 0 32 32">
<title>messages</title>
<path fill="#ffffff" d="M0 12.72v10.32h4.8v2.864c0 2.4 0.048 2.912 0.256 3.12 0.544 0.56 0.4 0.688 4.032-3.392l2.304-2.592h14.528v-20.64h-25.92v10.32zM24.48 12.64v8.96h-13.744l-4.416 4.928-0.048-2.256c-0.016-1.328-0.112-2.336-0.224-2.464-0.128-0.16-0.752-0.208-2.464-0.208h-2.304v-17.92h23.2v8.96z"></path>
<path fill="#ffffff" d="M5.824 9.344c-0.048 0.128-0.048 0.32 0.016 0.416 0.064 0.112 2.496 0.16 7.456 0.16h7.36l-0.048-0.368-0.048-0.352-7.328-0.048c-6.304-0.032-7.328 0-7.408 0.192z"></path>
<path fill="#ffffff" d="M5.808 11.936c-0.048 0.128-0.016 0.32 0.064 0.4s3.024 0.128 7.424 0.112l7.264-0.048 0.048-0.368 0.048-0.352h-7.376c-6.544 0-7.376 0.032-7.472 0.256z"></path>
<path fill="#ffffff" d="M5.872 14.192c-0.064 0.048-0.112 0.24-0.112 0.4 0 0.272 0.336 0.288 7.456 0.288h7.44l-0.048-0.368-0.048-0.352-7.296-0.048c-4-0.016-7.344 0.016-7.392 0.080z"></path>
<path fill="#ffffff" d="M27.232 14.912c-0.112 0.112-0.192 0.336-0.192 0.528 0 0.608 0.304 0.72 2.032 0.72h1.648v9.12h-1.024c-1.28 0-1.536 0.208-1.536 1.248v0.752l-0.928-1.008-0.928-0.992h-7.104v-0.688c0-0.384-0.080-0.768-0.192-0.88-0.272-0.272-1.040-0.24-1.152 0.064-0.176 0.464-0.096 2.56 0.096 2.752 0.144 0.144 1.248 0.192 3.968 0.192h3.776l1.408 1.536c1.28 1.36 1.472 1.52 1.92 1.472l0.496-0.048 0.096-2.944 2.304-0.096 0.048-5.744c0.032-4.096-0.016-5.808-0.144-5.952-0.24-0.304-4.304-0.32-4.592-0.032z"></path>
</svg>
